#!OML:ASF E:/inclinewalkrobotboard/Project1/Captureday1/Session1/subject1.ASF
:FULLY-SPECIFIED
:DEGREES
151
root 0 0 0 0.39235847456436845 -3.1312411913238853 1.1941369090434575
lowerback 11.473727294540886 0.6210985815575215 -0.5271758723554191
upperback -2.7020364252617384 0.7826636922923496 0.05210670294621966
thorax -9.34428913267738 0.3504926843571075 0.23172130939438673
lowerneck -9.96078710113457 0.19022090886762388 2.2746949493312125
upperneck 18.543554719537926 1.025190492495129 -5.356806480928047
head 7.471989663983313 0.22743044379500899 -2.0375246455339813
rclavicle 1.422473048402025E-16 -7.314146656341648E-16
rhumerus 1.2494290301604423 2.4983045966483814 -60.319549532826656
rradius 54.98090865385228
rwrist 17.00855344204684
rhand -27.96280755449969 -25.516109165107128
rfingers 7.125019999999987
rthumb -1.3641649727221363 -55.71889042618108
lclavicle -8.048825883841937E-16 -2.224760689920762E-16
lhumerus 1.685555531768454 -9.195435475630752 59.98284317449025
lradius 54.684074663066994
lwrist -10.642595321486915
lhand -38.3967840538603 -33.72465545896715
lfingers 7.125019999999984
lthumb -11.358657420413461 -3.954237443895998
rfemur -24.984737382355263 1.8370370877243145 20.161204776843505
rtibia 47.829764266871145
rfoot -7.1150058316520175 -9.70374035756874
rtoes -1.1675354011547916
lfemur -14.044461499638336 -0.39903193202456455 -17.535183054975487
ltibia 41.9740895223162
lfoot -6.079464418456735 -4.8124677805824545
ltoes -6.162555297461023
152
root 0 0 0 0.40159216892848315 -3.071089245303835 1.2530995734324037
lowerback 11.461082325212281 0.5904009501740819 -0.6086438006832132
upperback -2.7002188260602136 0.7321085403424022 0.0539826707341764
thorax -9.336165166138061 0.32819289919787326 0.2816886374949593
lowerneck -9.965848664417965 0.2030383413038499 2.268822335124857
upperneck 18.487968014296808 1.037269124925606 -5.345910026383353
head 7.452668469943017 0.23526842845198082 -2.029635206578983
rclavicle 7.664662491959061E-17 -7.659360120191935E-16
rhumerus 0.7760151987902013 2.173659315904228 -60.598069587978216
rradius 54.552723217245045
rwrist 16.80990040382006
rhand -27.809275700566914 -24.773972688266294
rfingers 7.125019999999987
rthumb -1.2188941013436168 -54.99417373898538
lclavicle -8.602166276765144E-16 -2.850365192749539E-16
lhumerus 1.2073576117625038 -9.067398604367208 60.30386292627385
lradius 54.324025708942926
lwrist -10.413071356196578
lhand -38.23811409692718 -32.933969507471026
lfingers 7.125019999999985
lthumb -11.211774687095097 -3.1367908921692305
rfemur -24.65973419853882 1.9380770177476256 20.34589062807705
rtibia 47.245872582772705
rfoot -7.42491910682614 -9.715690799830282
rtoes -1.2353506292459375
lfemur -13.691962330506573 -0.7083950065761053 -17.87194837928333
ltibia 39.71145313076841
lfoot -6.997898598626684 -4.022549005472702
ltoes -5.853774605123127
153
root 0 0 0 0.45186821926386456 -3.1148413405950444 1.2988824633754341
lowerback 11.493116771728696 0.6060908830007128 -0.5966352195187653
upperback -2.7638614821456176 0.7554743885764384 0.023152173427805955
thorax -9.427418502668699 0.337494438535008 0.24467725337908497
lowerneck -9.82887553389005 0.2567059443388011 2.3531864845026185
upperneck 18.525448638875872 1.121345680109819 -5.473819645051477
head 7.442884896165767 0.2699340025617918 -2.0766437451417525
rclavicle 1.9268710535003988E-16 -7.433624937476267E-16
rhumerus 2.287729103703146 3.2288008537171677 -59.730181941129565
rradius 55.92910436433117
rwrist 17.424439816211425
rhand -28.30430361520554 -27.09910850437822
rfingers 7.125019999999986
rthumb -1.6806365493731796 -57.33285910876431
lclavicle -8.353493714206556E-16 -1.9263772273566044E-16
lhumerus 2.737129791111979 -9.504042854238675 59.26824836833113
lradius 55.51131575672089
lwrist -11.116992540893396
lhand -38.74858033481398 -35.439189921367465
lfingers 7.125019999999983
lthumb -11.695204599353904 -5.7234015579168585
rfemur -25.117256138869877 1.8309498705065792 20.109501134071117
rtibia 47.60486630626998
rfoot -7.34812036916765 -9.817279146173178
rtoes -1.3793692157662196
lfemur -13.980358876816204 -0.5720061779923032 -17.66967542969918
ltibia 40.70871691229992
lfoot -6.625858721992326 -4.329348698630034
ltoes -6.005070908473392
154
root 0 0 0 0.4569482172720005 -3.1237355650070375 1.3039371596451754
lowerback 11.49956981059277 0.6090826888833636 -0.5914455882919328
upperback -2.7724986153485096 0.7600862433151762 0.018859256069778896
thorax -9.441028013561127 0.33935998432686987 0.23841823560070596
lowerneck -9.809528724111509 0.2627969069929632 2.365139952308222
upperneck 18.538439691042317 1.132029189919617 -5.492911064365831
head 7.444337078903125 0.2740773331278654 -2.08399337167249
rclavicle 2.0540704686590834E-16 -7.421561269947753E-16
rhumerus 2.489000904082854 3.371769459721513 -59.616975417715246
rradius 56.112048302618135
rwrist 17.504261146927316
rhand -28.37021422888401 -27.40490820759597
rfingers 7.125019999999986
rthumb -1.7407037865364394 -57.64265591396368
lclavicle -8.372442599477995E-16 -1.8353746472690647E-16
lhumerus 2.960375424622324 -9.566967058351848 59.114133995332296
lradius 55.68519454056484
lwrist -11.220505261588373
lhand -38.82333679682833 -35.80653882643306
lfingers 7.125019999999983
lthumb -11.766478642377322 -6.106528203052065
rfemur -25.253441046638017 1.7942604329983538 20.03975112555988
rtibia 47.76652507376788
rfoot -7.285778836611229 -9.834262490503427
rtoes -1.3902570228796445
lfemur -14.340454708225248 -0.40856075411791937 -17.435036789088993
ltibia 41.86608233380559
lfoot -6.231002032868451 -4.666204678583428
ltoes -6.177038375537405
155
root 0 0 0 0.4588597393990903 -3.1278196806147758 1.3057389817648934
lowerback 11.502623971523693 0.6104005934028017 -0.5886681943490896
upperback -2.7761632220785626 0.7620998491067615 0.017104076561206716
thorax -9.446976431367254 0.3402069924120944 0.23565361615651392
lowerneck -9.801221509325902 0.26529442152618365 2.3703630197042163
upperneck 18.544952947672307 1.1364765252452114 -5.501279916912665
head 7.4453103920281505 0.2757926860806652 -2.0872536825964185
rclavicle 2.0894958609071532E-16 -7.416281602843282E-16
rhumerus 2.535145219669669 3.4041993446774885 -59.590431484783366
rradius 56.153873150134785
rwrist 17.52291871526338
rhand -28.385292348251213 -27.47549117189043
rfingers 7.125019999999986
rthumb -1.7545994644182556 -57.71391735132331
lclavicle -8.380140504001089E-16 -1.8125810538858253E-16
lhumerus 3.0139912230980173 -9.582007884494825 59.07706742516761
lradius 55.72690650097355
lwrist -11.24537943823822
lhand -38.84126118703145 -35.89494286789836
lfingers 7.125019999999983
lthumb -11.783554179875646 -6.198651180012561
rfemur -25.44376002092418 1.7413870177435833 19.944405419002372
rtibia 48.00304180152419
rfoot -7.192573161810874 -9.856119735856186
rtoes -1.3953911479589705
lfemur -14.691673456426322 -0.2635541950127356 -17.214068241802142
ltibia 42.89679570372362
lfoot -5.873551271979999 -4.958217759546748
ltoes -6.320092579241965
